PathFileType	4	(X/Y/Z)	Walk5.trc
DataRate	CameraRate	NumFrames	NumMarkers	Units	OrigDataRate	OrigDataStartFrame	OrigNumFrames
200.000000	200.000000	4	61	mm	200.000000	355	487
Frame#	Times		LFHD		RFHD		CLAV		LASI		RASI		RACR1		RUA1		RFA1		RWRU		RCAR		LACR1		LUA1		LWRU		LCAR		RTH3		LTH1		LTH3		LTH2		LTH4		LLFC		LTB1		LTB2		LTB4		LFA1		RTB1		LToe		LTB3		STRN		RTB4		RWRR		RTB3		RMFC		RMT5		RTH2		LBHD		RMT1		RTB2		LElbow		RLFC		RMMAL		LMFC		RTH4		RToe		LWRR		T10		RElbow		RTH1		LPSI		RBack		RBHD		LMT5		RLMAL		RCAL		RPSI		LElbowM		LMMAL		RElbowM		LCAL		LLMAL		LMT1		C7
			X1	Y1	Z1	X2	Y2	Z2	X3	Y3	Z3	X4	Y4	Z4	X5	Y5	Z5	X6	Y6	Z6	X7	Y7	Z7	X8	Y8	Z8	X9	Y9	Z9	X10	Y10	Z10	X11	Y11	Z11	X12	Y12	Z12	X13	Y13	Z13	X14	Y14	Z14	X15	Y15	Z15	X16	Y16	Z16	X17	Y17	Z17	X18	Y18	Z18	X19	Y19	Z19	X20	Y20	Z20	X21	Y21	Z21	X22	Y22	Z22	X23	Y23	Z23	X24	Y24	Z24	X25	Y25	Z25	X26	Y26	Z26	X27	Y27	Z27	X28	Y28	Z28	X29	Y29	Z29	X30	Y30	Z30	X31	Y31	Z31	X32	Y32	Z32	X33	Y33	Z33	X34	Y34	Z34	X35	Y35	Z35	X36	Y36	Z36	X37	Y37	Z37	X38	Y38	Z38	X39	Y39	Z39	X40	Y40	Z40	X41	Y41	Z41	X42	Y42	Z42	X43	Y43	Z43	X44	Y44	Z44	X45	Y45	Z45	X46	Y46	Z46	X47	Y47	Z47	X48	Y48	Z48	X49	Y49	Z49	X50	Y50	Z50	X51	Y51	Z51	X52	Y52	Z52	X53	Y53	Z53	X54	Y54	Z54	X55	Y55	Z55	X56	Y56	Z56	X57	Y57	Z57	X58	Y58	Z58	X59	Y59	Z59	X60	Y60	Z60	X61	Y61	Z61

355	1.775	634.03	1603.7	-52.255	629.61	1603.8	47.248	600	1322	-11.769	573.43	913.59	-120.87	593.78	933.66	125.92	541.66	1355.9	157.27	539.76	1186.8	213.11	588.13	902.84	277.31	655.7	797.97	251.29	647.5	726	294.03	517.59	1374	-158.12	492.67	1203.2	-222.23	572.91	808.48	-250.88	555.81	737.96	-279.65	546.37	591.83	161.48	552.15	742.44	-176.93	602.75	580.44	-149.9	630.79	681.9	-148.45	576.67	660.63	-164.45	627.39	450.93	-132.75	603.33	348.85	-67.079	523.93	303.93	-120.99	536.42	293.76	-62.282	502.76	911.24	-267.07	564.54	334.5	89.439	483.52	43.903	-59.388	475.13	236.39	-56.308	622.62	1188.5	-12.892	547.41	249.58	78.189	595.59	781.34	280.92	528.59	166.67	64.125	515.08	441.18	2.4415	562.61	22.941	84.484	600.84	682.25	162.78	497.08	1529.4	-80.629	592.95	35.213	-3.3747	504.9	252.85	122.43	463.37	1047.4	-244.33	553.62	443.58	125.84	471.87	87.245	-3.9984	622.25	444.02	5.8273	545.49	672.86	182.7	645.64	30.766	25.176	504.5	794.86	-250.01	415.16	1211.8	2.721	533.37	1022.1	251.15	545.9	757.38	207.43	405.36	967.15	-35.839	417.45	1296.9	73.16	493.13	1535.8	62.622	412.15	87.655	-105.25	460.67	64.247	75.475	406.74	42.113	33.839	416.24	970.35	63.959	450.91	1029.4	-171.84	382.65	195.9	-19.219	503.86	1013.2	176.98	299.99	203.48	-56.461	360.31	190.34	-100.12	440.76	74.855	-31.347	490.05	1423.9	-5.9065
356	1.78	642.06	1604.2	-52.382	637.67	1604.5	47.119	607.52	1322.9	-11.561	581.39	914.78	-120.85	601.43	933.85	125.87	549.27	1357	157.46	547.87	1187.9	213.36	598.59	904.29	276.86	667.38	800.27	250.37	660.04	728	292.8	524.53	1374.6	-157.96	498.43	1203.8	-221.69	572.03	806.97	-250.26	553.05	736.72	-278.75	551.17	591.93	161.15	561.07	743.85	-177.18	613.77	582.55	-149.76	640.59	684.4	-148.77	586.73	662.35	-164.52	640.22	453.18	-132.18	618.67	350.57	-66.465	540.47	303.39	-120.22	553.34	293.64	-61.507	504.07	911.4	-265.95	565.47	334.66	89.207	508.34	43.094	-59.314	493.67	234.61	-55.368	630.32	1189.7	-12.674	548.14	249.77	77.987	607.45	782.84	279.94	529.1	166.93	63.962	515.59	441.35	2.291	562.69	22.98	84.327	606.57	681.79	161.16	504.82	1530.3	-80.617	593.21	35.15	-3.4331	505.65	253.17	122.26	467.97	1048.1	-242.87	555.41	443.63	125.65	472.31	87.647	-4.2497	635.33	446.67	6.2027	551.59	672.85	182.09	645.89	30.576	25.28	503.31	794.96	-248.99	422.9	1212.4	3.3373	542.47	1023.1	251.09	553.34	757.53	206.69	413.27	968.05	-35.722	425.11	1297.6	73.645	500.93	1537	62.771	435.21	84.545	-104.66	460.81	64.725	75.153	406.98	42.797	33.469	424.06	971.09	64.144	455.71	1030.6	-170.28	402.57	191.36	-18.166	513.06	1014.4	176.8	319.41	196.32	-54.971	380.11	185.23	-99.01	464.71	72.504	-30.925	497.46	1424.6	-5.7494
357	1.785	650.08	1604.6	-52.526	645.7	1605	46.974	615.06	1323.8	-11.337	589.36	915.84	-120.81	609.05	933.96	125.84	556.88	1358.1	157.66	555.95	1189	213.63	609.06	905.65	276.41	679.07	802.51	249.42	672.61	729.94	291.53	531.5	1375.1	-157.78	504.24	1204.4	-221.12	571.13	805.54	-249.65	550.3	735.62	-277.88	555.98	591.98	160.8	569.97	745.16	-177.46	624.67	584.55	-149.64	650.3	686.77	-149.11	596.7	663.97	-164.62	652.84	455.3	-131.63	633.88	352.2	-65.882	556.99	302.72	-119.49	570.25	293.42	-60.774	505.41	911.58	-264.84	566.43	334.84	88.991	533.32	42.29	-59.326	512.33	232.71	-54.486	638.04	1190.8	-12.392	548.89	249.99	77.796	619.36	784.27	278.94	529.64	167.22	63.803	516.19	441.57	2.171	562.77	23.019	84.159	612.29	681.29	159.52	512.56	1531.1	-80.617	593.48	35.086	-3.491	506.41	253.53	122.08	472.6	1048.8	-241.43	557.22	443.7	125.48	472.79	88.092	-4.5169	648.13	449.21	6.519	557.7	672.78	181.47	646.16	30.372	25.391	502.15	795.13	-247.97	430.65	1212.8	3.9336	551.54	1023.9	251.05	560.79	757.6	205.97	421.17	968.86	-35.639	432.77	1298.3	74.123	508.72	1538.1	62.909	458.5	81.366	-104.14	460.96	65.235	74.807	407.24	43.526	33.054	431.86	971.73	64.291	460.53	1031.6	-168.78	422.72	186.63	-17.182	522.25	1015.5	176.63	339.17	188.92	-53.555	400.17	179.94	-97.968	488.89	70.144	-30.574	504.89	1425.3	-5.5865
358	1.79	658.08	1604.8	-52.68	653.72	1605.4	46.818	622.62	1324.5	-11.103	597.35	916.78	-120.77	616.62	933.99	125.84	564.49	1359	157.87	564.03	1190	213.94	619.54	906.91	275.97	690.77	804.69	248.45	685.22	731.84	290.24	538.51	1375.4	-157.6	510.11	1204.8	-220.53	570.23	804.2	-249.04	547.56	734.66	-277.01	560.77	592	160.45	578.84	746.35	-177.74	635.43	586.44	-149.54	659.93	688.98	-149.46	606.58	665.48	-164.74	665.24	457.29	-131.1	648.96	353.76	-65.335	573.51	301.92	-118.82	587.14	293.11	-60.09	506.79	911.78	-263.72	567.43	335.04	88.802	558.44	41.518	-59.406	531.09	230.7	-53.672	645.77	1191.7	-12.052	549.68	250.23	77.624	631.3	785.64	277.95	530.21	167.53	63.655	516.9	441.86	2.0825	562.84	23.059	83.981	617.97	680.75	157.89	520.31	1531.8	-80.628	593.77	35.024	-3.5492	507.19	253.92	121.91	477.25	1049.4	-240	559.03	443.78	125.33	473.31	88.58	-4.8	660.65	451.63	6.7795	563.79	672.66	180.85	646.45	30.153	25.508	501.03	795.38	-246.94	438.39	1213.2	4.5047	560.59	1024.7	251.03	568.22	757.59	205.27	429.06	969.58	-35.594	440.44	1298.8	74.593	516.51	1539	63.032	482.02	78.145	-103.69	461.12	65.778	74.438	407.51	44.295	32.594	439.62	972.28	64.397	465.36	1032.6	-167.32	443.09	181.76	-16.271	531.42	1016.5	176.5	359.26	181.33	-52.228	420.5	174.48	-97	513.26	67.806	-30.283	512.36	1425.8	-5.4205
